<svg width="42" height="42" viewBox="0 0 42 42" fill="none" xmlns="http://www.w3.org/2000/svg">
<path d="M6.99988 14C6.99988 12.1435 7.73738 10.363 9.05013 9.05025C10.3629 7.7375 12.1434 7 13.9999 7H27.9999C29.8564 7 31.6369 7.7375 32.9496 9.05025C34.2624 10.363 34.9999 12.1435 34.9999 14V28C34.9999 29.8565 34.2624 31.637 32.9496 32.9497C31.6369 34.2625 29.8564 35 27.9999 35H13.9999C12.1434 35 10.3629 34.2625 9.05013 32.9497C7.73738 31.637 6.99988 29.8565 6.99988 28V14Z" stroke="black" stroke-width="2.5" stroke-linecap="round" stroke-linejoin="round"/>
<path d="M15.75 21C15.75 22.3924 16.3031 23.7277 17.2877 24.7123C18.2723 25.6969 19.6076 26.25 21 26.25C22.3924 26.25 23.7277 25.6969 24.7123 24.7123C25.6969 23.7277 26.25 22.3924 26.25 21C26.25 19.6076 25.6969 18.2723 24.7123 17.2877C23.7277 16.3031 22.3924 15.75 21 15.75C19.6076 15.75 18.2723 16.3031 17.2877 17.2877C16.3031 18.2723 15.75 19.6076 15.75 21Z" stroke="black" stroke-width="2.5" stroke-linecap="round" stroke-linejoin="round"/>
</svg>
