<svg width="161" height="44" viewBox="0 0 161 44" fill="none" xmlns="http://www.w3.org/2000/svg">
<path d="M161 0H0V44H161V0Z" fill="white"/>
<path d="M57.5395 27.8467C56.6701 27.8467 55.8704 27.7094 55.1406 27.4348C54.4107 27.1497 53.7774 26.7537 53.2408 26.2468C52.7041 25.7294 52.2855 25.1275 51.985 24.4411C51.6844 23.7547 51.5342 22.9996 51.5342 22.176C51.5342 21.3523 51.6844 20.5972 51.985 19.9108C52.2855 19.2244 52.7041 18.6278 53.2408 18.1209C53.7882 17.6035 54.4268 17.2075 55.1567 16.9329C55.8865 16.6478 56.6915 16.5052 57.5717 16.5052C58.4625 16.5052 59.2783 16.6478 60.0189 16.9329C60.7595 17.218 61.3874 17.6457 61.9026 18.216L60.9044 19.198C60.4428 18.7545 59.9384 18.4324 59.391 18.2318C58.8543 18.0206 58.2693 17.915 57.6361 17.915C56.9921 17.915 56.391 18.0206 55.8329 18.2318C55.2855 18.443 54.8078 18.7387 54.4 19.1188C54.0028 19.499 53.6916 19.9531 53.4662 20.4811C53.2515 20.9985 53.1442 21.5635 53.1442 22.176C53.1442 22.7779 53.2515 23.3428 53.4662 23.8708C53.6916 24.3883 54.0028 24.8424 54.4 25.2331C54.8078 25.6132 55.2855 25.9089 55.8329 26.1201C56.3803 26.3313 56.976 26.4369 57.62 26.4369C58.221 26.4369 58.7953 26.3472 59.3427 26.1676C59.9008 25.9776 60.416 25.666 60.8883 25.2331L61.806 26.4369C61.2478 26.9016 60.5931 27.2553 59.8418 27.4982C59.1012 27.7305 58.3337 27.8467 57.5395 27.8467ZM60.2604 26.231V22.1126H61.806V26.4369L60.2604 26.231ZM66.3538 21.4156H72.1498V22.762H66.3538V21.4156ZM66.4987 26.3419H73.0675V27.72H64.8887V16.632H72.8421V18.01H66.4987V26.3419ZM77.1394 21.4156H82.9354V22.762H77.1394V21.4156ZM77.2843 26.3419H83.8531V27.72H75.6743V16.632H83.6277V18.01H77.2843V26.3419ZM87.8768 25.043L87.7963 23.1105L94.188 16.632H96.0234L91.0807 21.7641L90.1791 22.7462L87.8768 25.043ZM86.46 27.72V16.632H88.07V27.72H86.46ZM94.4456 27.72L89.8249 22.4294L90.9036 21.2572L96.3293 27.72H94.4456Z" fill="#FF001E"/>
<path d="M101.892 27.72V16.632H104.049L108.847 24.4569H107.704L112.421 16.632H114.562L114.594 27.72H112.147L112.131 20.3227H112.582L108.815 26.5478H107.639L103.791 20.3227H104.339V27.72H101.892ZM119.667 21.0988H125.093V23.0947H119.667V21.0988ZM119.861 25.6608H125.995V27.72H117.268V16.632H125.785V18.6912H119.861V25.6608ZM128.07 27.72V16.632H133.19C134.413 16.632 135.492 16.8643 136.426 17.3289C137.359 17.783 138.089 18.4219 138.615 19.2456C139.141 20.0692 139.404 21.046 139.404 22.176C139.404 23.2953 139.141 24.2721 138.615 25.1064C138.089 25.93 137.359 26.5742 136.426 27.0388C135.492 27.4929 134.413 27.72 133.19 27.72H128.07ZM130.678 25.6132H133.061C133.812 25.6132 134.461 25.476 135.009 25.2014C135.567 24.9163 135.996 24.515 136.297 23.9976C136.608 23.4801 136.764 22.8729 136.764 22.176C136.764 21.4684 136.608 20.8612 136.297 20.3544C135.996 19.8369 135.567 19.4409 135.009 19.1664C134.461 18.8812 133.812 18.7387 133.061 18.7387H130.678V25.6132ZM141.371 27.72V16.632H143.979V27.72H141.371ZM145.173 27.72L150.196 16.632H152.772L157.811 27.72H155.074L150.953 17.9308H151.983L147.845 27.72H145.173ZM147.684 25.344L148.377 23.3956H154.173L154.881 25.344H147.684Z" fill="#004F82"/>
<path d="M36.3122 6.44367C33.8525 3.89974 30.8272 2.01851 27.5013 0.964798C24.1754 -0.0889185 20.6504 -0.282969 17.2351 0.39965C13.8199 1.08227 10.6186 2.62073 7.91177 4.88022C5.20496 7.13971 3.07519 10.0513 1.70909 13.3599C0.342989 16.6684 -0.217757 20.273 0.0759844 23.8578C0.369725 27.4426 1.50899 30.8982 3.39395 33.9218C5.27893 36.9454 7.85206 39.4448 10.8879 41.2009C13.9238 42.957 17.3298 43.9163 20.8074 43.9948L20.9486 37.2997C18.5295 37.2451 16.1603 36.5778 14.0485 35.3562C11.9368 34.1347 10.1469 32.3961 8.83568 30.2929C7.52447 28.1896 6.732 25.7859 6.52766 23.2923C6.32332 20.7987 6.71339 18.2913 7.66365 15.9899C8.61391 13.6884 10.0954 11.6631 11.9783 10.0914C13.8612 8.51963 16.088 7.44951 18.4637 6.97466C20.8394 6.49981 23.2914 6.63481 25.6049 7.3678C27.9184 8.10075 30.0228 9.40936 31.7338 11.1789L36.3122 6.44367Z" fill="#004F82"/>
<path d="M44.6693 22C44.6693 24.8891 44.1192 27.7499 43.0502 30.419C41.9812 33.0882 40.4144 35.5135 38.4392 37.5563C36.464 39.5993 34.119 41.2197 31.5383 42.3254C28.9576 43.4309 26.1915 44 23.3982 44V37.3033C25.3413 37.3033 27.2653 36.9075 29.0605 36.1384C30.8557 35.3694 32.4868 34.2422 33.8608 32.8211C35.2348 31.4 36.3247 29.713 37.0683 27.8564C37.8118 25.9996 38.1945 24.0097 38.1945 22H44.6693Z" fill="#FF001E"/>
<path d="M32.5983 21.2244L44.7224 21.1198L44.6935 17.5369L32.5694 17.6414L32.5983 21.2244Z" fill="#004DA7"/>
<path d="M12.9971 29.92V15.136H15.8736L22.2707 25.5693H20.7465L27.0363 15.136H29.8913L29.9343 29.92H26.6713L26.6499 20.0569H27.2509L22.2277 28.3571H20.6607L15.5301 20.0569H16.26V29.92H12.9971Z" fill="#FF001E"/>
</svg>
